<svg xmlns="http://www.w3.org/2000/svg" width="24" height="24" fill="#25D366" viewBox="0 0 24 24"><path d="M12.004 2.003a9.994 9.994 0 0 0-8.47 15.47l-1.13 4.13 4.24-1.11a9.994 9.994 0 1 0 5.36-18.49zm5.47 14.47c-.23.65-1.34 1.28-1.84 1.36-.47.08-1.06.12-1.7-.11-.39-.13-.89-.29-1.53-.57-2.7-1.18-4.46-3.94-4.6-4.13-.13-.18-1.1-1.47-1.1-2.8 0-1.33.7-1.98.95-2.25.25-.27.54-.34.72-.34.18 0 .36.01.52.01.16 0 .4-.06.62.47.23.54.78 1.87.85 2.01.07.14.12.31.02.5-.09.19-.13.31-.25.48-.12.17-.26.38-.37.51-.12.13-.24.27-.1.53.13.26.58.96 1.25 1.56.86.77 1.59 1.01 1.85 1.13.26.12.41.1.56-.06.15-.16.64-.74.81-.99.17-.25.34-.2.57-.12.23.08 1.46.69 1.71.82.25.13.41.19.47.3.06.11.06.63-.17 1.28z"/></svg>